<svg xmlns="http://www.w3.org/2000/svg" width="1000" height="1000" viewBox="0 0 1000 1000">
  <defs>
    <style>
      .cls-1 {
        fill: #765bbb;
      }

      .cls-1, .cls-2, .cls-3 {
        fill-rule: evenodd;
      }

      .cls-2 {
        fill: #442e90;
      }

      .cls-3 {
        fill: none;
        stroke: #000;
        stroke-width: 5px;
      }
    </style>
  </defs>
  <path id="Фигура_1" data-name="Фигура 1" class="cls-1" d="M401.759,282.747c71.51-33.388,87.234-136.445,133.277-136,30.746,0.3,56.915,44.82,73.439,84.318,14.768,35.3,11.957,97.411,38.079,114.238C686.4,370.973,761,307.234,839.67,318.106c33.354,4.61,49.32,15.03,54.4,27.2,10.612,25.428-19.63,63.314-43.519,84.318-48.883,42.978-125.422,34.318-155.037,81.6-4.685,7.479-10.722,33.927-10.88,62.559a266.4,266.4,0,0,0,13.6,87.038c10.827,32.067,23.362,48.55,21.759,78.878-1.272,24.076-11.136,58.347-32.639,65.279-28.34,9.135-69.764-31.461-114.237-92.478-35.163-48.243-51.1-86.27-73.439-84.318s-28.577,41.947-57.119,87.038C399.678,782.96,322.49,836.393,287.522,818.575c-16.165-8.236-23.577-32.083-24.48-65.278-1.08-39.718,16.712-71.2,24.48-84.318,13.39-22.616,28.3-50.668,38.079-65.279,23.986-35.85,41.639-56.855,38.079-78.878-5.248-32.471-42.837-47.683-84.318-73.439C249.325,432.734,165.958,376.538,176,339.866c4.016-14.661,22.674-23.809,59.839-32.64C302.554,291.376,354.084,305.007,401.759,282.747Z"/>
  <path id="Эллипс_1" data-name="Эллипс 1" class="cls-2" d="M409.919,342.586c12.018,0,21.76,16.439,21.76,36.719s-9.742,36.719-21.76,36.719-21.759-16.44-21.759-36.719S397.9,342.586,409.919,342.586Z"/>
  <path id="Эллипс_2" data-name="Эллипс 2" class="cls-2" d="M501.037,391.545c14.271,0,25.84,20.7,25.84,46.239s-11.569,46.239-25.84,46.239-25.839-20.7-25.839-46.239S486.766,391.545,501.037,391.545Z"/>
  <path id="Эллипс_3" data-name="Эллипс 3" class="cls-2" d="M431.679,478.583c13.519,0,24.479,17.657,24.479,39.439s-10.96,39.439-24.479,39.439S407.2,539.8,407.2,518.022,418.159,478.583,431.679,478.583Z"/>
  <path id="Фигура_1_копия" data-name="Фигура 1 копия" class="cls-3" d="M329.681,331.706c71.51-33.388,87.233-136.445,133.277-136,30.746,0.3,56.915,44.82,73.438,84.318,14.768,35.3,11.958,97.411,38.08,114.238,39.846,25.667,114.449-38.072,193.115-27.2,33.355,4.61,49.321,15.03,54.4,27.2,10.612,25.428-19.63,63.314-43.519,84.318-48.883,42.978-125.422,34.318-155.036,81.6-4.685,7.479-10.722,33.927-10.88,62.559a266.431,266.431,0,0,0,13.6,87.038c10.828,32.067,23.363,48.55,21.76,78.878-1.272,24.076-11.137,58.347-32.639,65.279-28.341,9.135-69.765-31.461-114.238-92.478-35.162-48.243-51.1-86.27-73.438-84.319s-28.577,41.948-57.119,87.039C327.6,831.919,250.411,885.352,215.443,867.534c-16.165-8.236-23.576-32.083-24.479-65.278-1.08-39.718,16.712-71.2,24.479-84.318,13.39-22.616,28.3-50.668,38.079-65.279,23.986-35.851,41.639-56.855,38.08-78.878-5.248-32.471-42.837-47.683-84.319-73.439-30.036-18.65-113.4-74.845-103.357-111.517,4.016-14.661,22.674-23.809,59.838-32.64C230.475,340.335,282.006,353.966,329.681,331.706Z"/>
</svg>
