<svg xmlns="http://www.w3.org/2000/svg" width="1000" height="1000" viewBox="0 0 1000 1000">
  <defs>
    <style>
      .cls-1 {
        fill: #8ac6d1;
        fill-rule: evenodd;
      }
    </style>
  </defs>
  <path id="Фигура_1" data-name="Фигура 1" class="cls-1" d="M666,296c23.077-2.59,43.9-20.784,54.435-40.1,26.883-49.278-19.683-108.382,10.081-147.177C739.979,96.392,756.445,86.77,767,91c18.724,7.5,21.109,59.444,17.952,118.532C783.946,228.354,781.8,255.247,799,274c13.718,14.96,41.416,12.385,74.661,20.21C884.111,296.669,897.7,300.789,900,310c2.041,8.186-5.392,16.669-9,20-21.854,20.175-57.974-.518-82,19-3.873,3.146-11.631,13.884-16,28-8.491,27.433,8.071,57.165-6,74-6.89,8.243-19.33,12.279-28,9-11.576-4.378-14.9-21-16.387-28.694C737.151,403.038,733.168,379.741,724,369c-16.127-18.895-43.851-15.392-86.226-22.371C594.875,339.564,573.01,330.584,571,318c-1.38-8.643,7-16.9,10.323-19.758,7.646-6.562,26.484-10.05,54.677-6.242C647.564,293.562,655.488,297.18,666,296Z"/>
  <path id="Фигура_1_копия" data-name="Фигура 1 копия" class="cls-1" d="M596.143,682.352c2.252,22.8,18.074,43.363,34.869,53.77,42.854,26.553,94.253-19.442,127.99,9.957,10.727,9.347,19.093,25.611,15.415,36.037-6.524,18.5-51.694,20.851-103.079,17.732-16.368-.993-39.755-3.108-56.063,13.877-13.01,13.55-10.771,40.909-17.575,73.747-2.139,10.323-5.722,23.748-13.732,26.017-7.119,2.016-14.5-5.326-17.393-8.89-17.544-21.586.451-57.264-16.523-81-2.736-3.825-12.074-11.488-24.349-15.8-23.857-8.387-49.713,7.973-64.353-5.926-7.168-6.806-10.679-19.094-7.827-27.658,3.808-11.434,18.26-14.717,24.953-16.186,24.583-5.395,44.843-9.33,54.184-18.385,16.431-15.93,13.385-43.315,19.454-85.171,6.144-42.374,13.953-63.972,24.9-65.957,7.516-1.364,14.7,6.911,17.182,10.2,5.707,7.553,8.74,26.16,5.428,54.008C598.263,664.142,595.117,671.969,596.143,682.352Z"/>
  <path id="Фигура_3" data-name="Фигура 3" class="cls-1" d="M204,350c15.521-9.815,15.99-33.895,16.8-50.447,2.346-47.964,8.7-84.635,24.268-88.985,10.871-3.038,22.788,8.138,27.009,13,16.964,19.557,13.126,48.36,13.591,89.7,0.039,3.458,1.8,24.217,10.634,40.209,8.636,15.64,17.3,21.64,24.7,22.517,12.634,1.5,22.784-10.279,33-20,18.873-17.957,50.321-40.243,64.863-31.852,2.965,1.71,7.354,9.543,9.137,21.852,1.767,12.194.3,26.242-6.31,38.493-9.236,17.117-25.921,24.894-49.037,37.512-16.885,9.216-33.8,16.035-38.6,32.6a37.857,37.857,0,0,0,2.7,26.965c9.536,18.811,33.425,20.683,47.189,35.055,10.1,10.548,21.178,25.553,18.875,41.8-1.32,9.314-7.252,22.008-19.814,27.582-7.712,3.422-15.615,3.028-24,1-20.418-4.937-35.287-16.1-43.822-23.189-13.111-10.883-20.552-19.237-35.055-26.965-14.642-7.8-26.9-8.174-35.055-6.741-12.629,2.22-20.358,9.274-32.358,20.223-6.842,6.244-22.094,17.769-35.055,26.966-7.514,5.332-18.122,14.14-28.313,10.786-11.879-3.91-15.5-21.143-16.342-27.08-2.1-14.806,3.251-26.615,5.882-32.983,5.6-13.564,6.265-24.3,10.46-38.36,5.2-17.442,12.813-29.809,10.786-40.448-5.249-27.556-49.375-42.031-70.174-67.978C87.2,377.8,77.336,369.376,73.84,356.179c-2.3-8.669-3.6-24.765,5.393-32.358,6.348-5.359,21.808-4.24,46.058,5.763,10.511,4.336,25.43,16.318,42.927,21.2C185.825,355.7,199.041,353.136,204,350Z"/>
</svg>
