<svg xmlns="http://www.w3.org/2000/svg" width="1000" height="1000" viewBox="0 0 1000 1000">
  <defs>
    <style>
      .cls-1 {
        fill: #8ac6d1;
        fill-rule: evenodd;
      }
    </style>
  </defs>
  <path id="Фигура_1" data-name="Фигура 1" class="cls-1" d="M226,600c-11.484.215-24.271-18.12-40-54-18.207-41.534-30.986-87.188-32-106-1.986-36.823,5.116-83.072,36-138,42.974-76.43,116.1-123.806,186-144,88.908-25.686,182.1-6.372,258,34,100.407,53.408,160.045,145.532,186,230,30.545,99.406,22.38,175.707-2,234-19.892,47.564-50.579,87.361-88,116-44.657,34.177-147.073,89.674-260,42-57.366-24.218-106.3-72.246-130-134-19.429-50.618-22.273-101.665-6-146,12.991-35.392,36.388-68.965,70-88,13.024-7.376,50.208-18.7,92-18,50.108,0.842,90.621,18.066,104,28,26.276,19.512,45.416,45.749,50,76,2.908,19.191,2.849,56.32-24,84-16.231,16.733-39.8,25.935-66,28-30,2.364-71.829-19.736-94-4-8.235,5.845-13.363,15.255-14,24-1.711,23.488,28.621,43.787,48,52,59.828,25.354,148.048-8.419,190-72,11.466-17.377,26.315-55.593,28-104,1.573-45.182-8.789-89.5-30-128-24.692-44.816-62.165-81.436-108-102-30.181-13.541-86.581-26.255-160-10-80.727,17.873-126.694,56.9-142,82-12.737,20.889-33.185,67-22,118,2.828,12.895,8.362,30.453,4,52C255.546,574,241.622,599.707,226,600Z"/>
</svg>
