<svg id="Capa_1" enable-background="new 0 0 512 512" height="512" viewBox="0 0 512 512" width="512" xmlns="http://www.w3.org/2000/svg"><g><path d="m421.08 179.59v251.83h-330.16v-251.83h30l135.08-113.25 135.08 113.25z" fill="#fff0f0"/><path d="m421.08 179.59v251.83h-165.08v-365.08l135.08 113.25z" fill="#f2d3d3"/><path d="m511.9 207.65-49.17 56.3-206.73-167.75-206.73 167.75-49.17-56.3 255.9-207.65z" fill="#873a62"/><path d="m511.9 207.65-49.17 56.3-206.73-167.75v-96.2z" fill="#66335b"/><path d="m482 474.7v37.3h-452v-37.3c0-26.49 21.55-48.04 48.04-48.04h355.92c26.49 0 48.04 21.55 48.04 48.04z" fill="#ff7c45"/><path d="m337.932 269.334c0 12.799-5.054 24.775-14.226 33.72l-67.706 65.645-67.696-65.635c-9.182-8.955-14.236-20.931-14.236-33.73 0-25.972 21.13-47.101 47.105-47.101 13.301 0 25.953 5.671 34.828 15.407 8.875-9.736 21.526-15.407 34.828-15.407 25.974-.001 47.103 21.129 47.103 47.101z" fill="#ff3f5c"/><path d="m337.932 269.334c0 12.799-5.054 24.775-14.226 33.72l-67.706 65.645v-131.06c8.875-9.736 21.526-15.407 34.828-15.407 25.975 0 47.104 21.13 47.104 47.102z" fill="#dd0056"/><path d="m482 474.7v37.3h-226v-85.34h177.96c26.49 0 48.04 21.55 48.04 48.04z" fill="#ff3f5c"/></g></svg>